<?xml version="1.0" encoding="utf-8"?>
<!-- Svg Vector Icons : http://www.onlinewebfonts.com/icon -->
<!DOCTYPE svg PUBLIC "-//W3C//DTD SVG 1.1//EN" "http://www.w3.org/Graphics/SVG/1.1/DTD/svg11.dtd">
<svg version="1.1" xmlns="http://www.w3.org/2000/svg" xmlns:xlink="http://www.w3.org/1999/xlink" x="0px" y="0px" viewBox="0 0 1000 1000" enable-background="new 0 0 1000 1000" xml:space="preserve">
<metadata> Svg Vector Icons : http://www.onlinewebfonts.com/icon </metadata>
<g><path d="M784.6,215.4c38.5,38.5,68.2,83.2,88.4,133.1c19.6,48.2,29.4,99.2,29.4,151.5s-10,103.2-29.4,151.5c-20.2,49.9-50,94.6-88.4,133.1c-38.5,38.5-83.2,68.2-133.1,88.4c-48.2,19.6-99.2,29.4-151.5,29.4s-103.2-10-151.5-29.4c-49.9-20.2-94.6-50-133.1-88.4c-38.5-38.5-68.2-83.2-88.4-133.1c-19.6-48.2-29.4-99.2-29.4-151.5s10-103.2,29.4-151.5c20.2-49.9,50-94.6,88.4-133.1c38.4-38.5,83.2-68.2,133.1-88.4c48.2-19.6,99.2-29.4,151.5-29.4s103.2,10,151.5,29.4C701.3,147.2,746.2,176.9,784.6,215.4 M846.5,153.5c-191.4-191.4-501.5-191.4-692.9,0c-191.4,191.4-191.4,501.5,0,692.9c191.4,191.4,501.5,191.4,692.9,0C1037.8,655.1,1037.8,344.8,846.5,153.5L846.5,153.5z"/><path d="M759.4,318.1c-17.1-17.1-44.7-17.1-61.9,0L427.1,588.6L301.6,463.3c-17.1-17.1-44.7-17.1-61.9,0c-17.1,17.1-17.1,44.7,0,61.9l156.4,156.4c8.5,8.5,19.7,12.8,30.9,12.8s22.4-4.3,30.9-12.8L759.5,380C776.5,362.9,776.5,335.2,759.4,318.1z"/></g>
</svg>